<?xml version="1.0" standalone="no"?>
<!DOCTYPE svg PUBLIC "-//W3C//DTD SVG 20010904//EN"
 "http://www.w3.org/TR/2001/REC-SVG-20010904/DTD/svg10.dtd">
<svg version="1.0" xmlns="http://www.w3.org/2000/svg"
 width="481.000000pt" height="519.000000pt" viewBox="0 0 481.000000 519.000000"
 preserveAspectRatio="xMidYMid meet">

<g transform="translate(0.000000,519.000000) scale(0.100000,-0.100000)"
fill="#000000" stroke="none">
<path d="M2045 4695 c-14 -13 -25 -33 -25 -45 0 -29 44 -70 75 -70 34 0 65 33
65 70 0 64 -70 91 -115 45z m69 -21 c22 -21 20 -41 -5 -54 -37 -20 -67 28 -37
58 16 16 23 15 42 -4z"/>
<path d="M4150 4495 c-47 -26 -45 -96 3 -121 27 -15 33 -15 64 0 29 14 33 20
33 53 0 44 -6 56 -37 72 -27 14 -32 14 -63 -4z m68 -54 c5 -32 -23 -54 -49
-40 -19 10 -26 49 -12 63 4 4 19 6 33 4 18 -2 26 -10 28 -27z"/>
<path d="M1948 4279 c-25 -14 -24 -65 1 -79 11 -5 31 -10 45 -10 l26 0 0 -264
0 -265 -57 -11 c-162 -34 -303 -166 -354 -330 -19 -63 -19 -90 -17 -905 l3
-840 36 -75 c20 -41 60 -101 89 -132 l52 -58 -486 0 c-291 0 -495 -4 -510 -10
-33 -12 -35 -53 -4 -74 20 -14 192 -16 1633 -16 1441 0 1613 2 1633 16 31 21
29 62 -4 74 -15 6 -219 10 -510 10 l-486 0 52 58 c29 31 69 91 89 132 l36 75
3 840 c2 815 2 842 -17 905 -51 164 -192 296 -353 330 l-58 11 0 265 0 264 26
0 c41 0 64 18 64 50 0 19 -7 33 -19 40 -27 14 -889 13 -913 -1z m752 -354 l0
-265 -125 0 -125 0 0 38 c0 43 -14 62 -45 62 -31 0 -45 -19 -45 -62 l0 -38
-125 0 -125 0 0 265 0 265 295 0 295 0 0 -265z m185 -384 c72 -29 166 -115
200 -181 38 -76 45 -156 45 -513 l0 -337 -95 0 c-52 0 -95 -3 -95 -6 0 -3 5
-25 11 -50 l11 -44 84 0 84 0 0 -363 c0 -219 -4 -387 -11 -423 -22 -122 -110
-232 -229 -288 -44 -20 -57 -21 -485 -21 -428 0 -441 1 -485 21 -119 56 -207
166 -229 288 -7 36 -11 204 -11 423 l0 363 94 0 93 0 31 50 31 50 -124 0 -125
0 0 337 c0 351 7 437 42 508 26 51 112 141 161 166 88 46 119 48 542 46 397
-2 400 -2 460 -26z"/>
<path d="M2150 3200 c0 -6 13 -28 29 -48 52 -65 138 -247 157 -329 26 -120 11
-244 -40 -308 -14 -19 -15 -17 -16 35 0 31 -7 83 -15 115 -16 59 -57 135 -74
135 -4 0 -11 -23 -14 -51 -8 -66 -33 -114 -123 -234 -94 -127 -116 -181 -122
-307 -3 -80 0 -110 18 -170 28 -94 68 -163 130 -226 205 -209 526 -184 706 55
61 81 86 162 92 300 11 275 -88 512 -307 733 -103 103 -245 213 -363 279 -32
18 -58 27 -58 21z m367 -373 c179 -190 273 -410 273 -637 0 -122 -45 -243
-114 -309 l-36 -35 0 75 c-1 139 -81 280 -217 380 -28 22 -54 39 -56 39 -2 0
10 -28 27 -62 26 -52 31 -74 31 -135 0 -55 -4 -76 -17 -90 -17 -16 -18 -15
-18 26 0 44 -14 81 -30 81 -6 0 -10 -11 -10 -25 0 -17 -18 -43 -56 -81 -66
-66 -76 -89 -76 -171 0 -35 -2 -63 -4 -63 -3 0 -32 25 -64 56 -138 131 -171
365 -72 509 48 72 97 134 105 135 4 0 7 -16 7 -35 0 -51 36 -85 90 -85 52 0
80 27 123 118 27 58 32 80 35 167 3 70 -1 118 -12 161 -9 34 -16 65 -16 69 0
12 55 -33 107 -88z m31 -892 c8 -107 -37 -165 -128 -165 -72 0 -120 67 -105
146 5 27 10 34 22 30 66 -26 109 -8 149 60 l27 46 15 -28 c8 -15 17 -55 20
-89z"/>
<path d="M1260 4125 c-31 -38 27 -96 65 -65 20 17 19 66 -1 74 -26 10 -51 7
-64 -9z m60 -24 c0 -26 -17 -36 -35 -21 -18 15 -8 40 16 40 12 0 19 -7 19 -19z"/>
<path d="M3408 3529 c-22 -12 -23 -42 -2 -63 31 -32 77 -14 77 29 0 41 -36 57
-75 34z m55 -23 c9 -22 -19 -42 -37 -26 -19 15 -10 40 14 40 10 0 20 -6 23
-14z"/>
<path d="M666 3264 c-23 -23 -20 -51 8 -69 34 -23 66 -5 66 35 0 44 -44 64
-74 34z m52 -27 c4 -22 -27 -35 -38 -16 -10 15 7 42 24 36 6 -2 12 -11 14 -20z"/>
<path d="M3978 2604 c-17 -36 0 -59 43 -59 30 0 34 3 37 28 7 57 -57 81 -80
31z m60 -17 c4 -20 -25 -34 -40 -19 -15 15 -1 44 19 40 10 -2 19 -11 21 -21z"/>
<path d="M408 1299 c-26 -14 -23 -65 3 -79 16 -9 26 -8 45 5 30 19 31 49 2 69
-26 19 -27 19 -50 5z"/>
<path d="M552 1294 c-48 -33 -10 -84 63 -84 66 0 101 44 65 80 -25 25 -96 27
-128 4z"/>
<path d="M4130 1290 c-36 -36 -1 -80 65 -80 47 0 85 23 85 50 0 47 -110 70
-150 30z"/>
<path d="M4352 1294 c-29 -20 -28 -50 2 -69 19 -13 29 -14 45 -5 28 14 29 65
2 80 -25 13 -22 13 -49 -6z"/>
</g>
</svg>
